<svg xmlns="http://www.w3.org/2000/svg" width="320" height="480"><path d="M-155,-291L-99,-275L119,-265Z" fill="#ffecae" stroke="#ffecae" stroke-width="1.51"/><path d="M402,-21L348,97L477,200Z" fill="#e3892d" stroke="#e3892d" stroke-width="1.51"/><path d="M458,284L468,492L477,200Z" fill="#ce5e0f" stroke="#ce5e0f" stroke-width="1.51"/><path d="M468,492L483,650L566,-16Z" fill="#c2520b" stroke="#c2520b" stroke-width="1.51"/><path d="M477,200L468,492L566,-16Z" fill="#cb6917" stroke="#cb6917" stroke-width="1.51"/><path d="M538,-155L402,-21L566,-16Z" fill="#d18e4d" stroke="#d18e4d" stroke-width="1.51"/><path d="M402,-21L477,200L566,-16Z" fill="#d38435" stroke="#d38435" stroke-width="1.51"/><path d="M333,-212L402,-21L538,-155Z" fill="#e59c5a" stroke="#e59c5a" stroke-width="1.51"/><path d="M458,284L293,381L468,492Z" fill="#d75c0a" stroke="#d75c0a" stroke-width="1.51"/><path d="M468,492L272,560L483,650Z" fill="#bf4603" stroke="#bf4603" stroke-width="1.51"/><path d="M272,560L354,716L483,650Z" fill="#b84405" stroke="#b84405" stroke-width="1.51"/><path d="M348,97L458,284L477,200Z" fill="#de771d" stroke="#de771d" stroke-width="1.51"/><path d="M293,381L272,560L468,492Z" fill="#d75907" stroke="#d75907" stroke-width="1.51"/><path d="M196,155L293,381L348,97Z" fill="#f58923" stroke="#f58923" stroke-width="1.51"/><path d="M348,97L293,381L458,284Z" fill="#e87517" stroke="#e87517" stroke-width="1.51"/><path d="M222,493L272,560L293,381Z" fill="#e2660f" stroke="#e2660f" stroke-width="1.51"/><path d="M272,560L239,645L354,716Z" fill="#c3510a" stroke="#c3510a" stroke-width="1.51"/><path d="M159,-24L348,97L402,-21Z" fill="#f5a147" stroke="#f5a147" stroke-width="1.51"/><path d="M333,-212L159,-24L402,-21Z" fill="#f8ab5b" stroke="#f8ab5b" stroke-width="1.51"/><path d="M159,-24L196,155L348,97Z" fill="#faa53d" stroke="#faa53d" stroke-width="1.51"/><path d="M239,645L30,759L354,716Z" fill="#bd5b13" stroke="#bd5b13" stroke-width="1.51"/><path d="M196,155L88,255L293,381Z" fill="#fa9025" stroke="#fa9025" stroke-width="1.51"/><path d="M119,-265L159,-24L333,-212Z" fill="#ffc070" stroke="#ffc070" stroke-width="1.51"/><path d="M88,255L222,493L293,381Z" fill="#f27e1b" stroke="#f27e1b" stroke-width="1.51"/><path d="M222,493L239,645L272,560Z" fill="#d55f0e" stroke="#d55f0e" stroke-width="1.51"/><path d="M222,493L-67,525L239,645Z" fill="#de761b" stroke="#de761b" stroke-width="1.51"/><path d="M-67,525L30,759L239,645Z" fill="#cf7925" stroke="#cf7925" stroke-width="1.51"/><path d="M159,-24L-1,66L196,155Z" fill="#ffbb4d" stroke="#ffbb4d" stroke-width="1.51"/><path d="M88,255L-67,525L222,493Z" fill="#f18e2a" stroke="#f18e2a" stroke-width="1.51"/><path d="M-52,286L-67,525L88,255Z" fill="#f9a646" stroke="#f9a646" stroke-width="1.51"/><path d="M119,-265L-41,-11L159,-24Z" fill="#ffd175" stroke="#ffd175" stroke-width="1.51"/><path d="M-1,66L88,255L196,155Z" fill="#ffb240" stroke="#ffb240" stroke-width="1.51"/><path d="M-99,-275L-41,-11L119,-265Z" fill="#ffe496" stroke="#ffe496" stroke-width="1.51"/><path d="M-41,-11L-1,66L159,-24Z" fill="#ffce67" stroke="#ffce67" stroke-width="1.51"/><path d="M-1,66L-52,286L88,255Z" fill="#ffb94c" stroke="#ffb94c" stroke-width="1.51"/><path d="M-163,410L-67,525L-52,286Z" fill="#f6a958" stroke="#f6a958" stroke-width="1.51"/><path d="M-67,525L-168,694L30,759Z" fill="#ce8b48" stroke="#ce8b48" stroke-width="1.51"/><path d="M-99,-275L-159,8L-41,-11Z" fill="#ffe99f" stroke="#ffe99f" stroke-width="1.51"/><path d="M-254,89L-52,286L-1,66Z" fill="#ffcf71" stroke="#ffcf71" stroke-width="1.51"/><path d="M-159,8L-254,89L-1,66Z" fill="#ffde88" stroke="#ffde88" stroke-width="1.51"/><path d="M-41,-11L-159,8L-1,66Z" fill="#ffdc83" stroke="#ffdc83" stroke-width="1.51"/><path d="M-155,-291L-159,8L-99,-275Z" fill="#fff3b4" stroke="#fff3b4" stroke-width="1.51"/><path d="M-245,564L-168,694L-67,525Z" fill="#dd995b" stroke="#dd995b" stroke-width="1.51"/><path d="M-254,89L-163,410L-52,286Z" fill="#ffc36e" stroke="#ffc36e" stroke-width="1.51"/><path d="M-163,410L-245,564L-67,525Z" fill="#efa35e" stroke="#efa35e" stroke-width="1.51"/><path d="M-254,89L-245,564L-163,410Z" fill="#ffb973" stroke="#ffb973" stroke-width="1.51"/><path d="M-254,89L-159,8L-155,-291Z" fill="#ffefab" stroke="#ffefab" stroke-width="1.51"/></svg>